<?xml version="1.0" encoding="UTF-8" standalone="no"?>
<!-- Created with Inkscape (http://www.inkscape.org/) -->

<svg
   xmlns:dc="http://purl.org/dc/elements/1.1/"
   xmlns:cc="http://creativecommons.org/ns#"
   xmlns:rdf="http://www.w3.org/1999/02/22-rdf-syntax-ns#"
   xmlns:svg="http://www.w3.org/2000/svg"
   xmlns="http://www.w3.org/2000/svg"
   xmlns:sodipodi="http://sodipodi.sourceforge.net/DTD/sodipodi-0.dtd"
   xmlns:inkscape="http://www.inkscape.org/namespaces/inkscape"
   width="50mm"
   height="25mm"
   viewBox="0 0 177.16535 88.582675"
   id="svg5627"
   version="1.1"
   inkscape:version="0.91 r13725"
   sodipodi:docname="logo.svg">
  <defs
     id="defs5629" />
  <sodipodi:namedview
     id="base"
     pagecolor="#ffffff"
     bordercolor="#666666"
     borderopacity="1.0"
     inkscape:pageopacity="0.0"
     inkscape:pageshadow="2"
     inkscape:zoom="0.98994949"
     inkscape:cx="212.22598"
     inkscape:cy="43.028194"
     inkscape:document-units="px"
     inkscape:current-layer="layer1"
     showgrid="false"
     inkscape:window-width="1366"
     inkscape:window-height="704"
     inkscape:window-x="0"
     inkscape:window-y="27"
     inkscape:window-maximized="1" />
  <metadata
     id="metadata5632">
    <rdf:RDF>
      <cc:Work
         rdf:about="">
        <dc:format>image/svg+xml</dc:format>
        <dc:type
           rdf:resource="http://purl.org/dc/dcmitype/StillImage" />
        <dc:title></dc:title>
      </cc:Work>
    </rdf:RDF>
  </metadata>
  <g
     inkscape:label="Camada 1"
     inkscape:groupmode="layer"
     id="layer1"
     transform="translate(0,-963.77933)">
    <g
       transform="matrix(2.916955,0,0,2.916955,-7119.4613,773.43614)"
       id="g5339">
      <g
         inkscape:transform-center-y="8.9545975"
         inkscape:transform-center-x="-2.8427103"
         id="g5341"
         transform="matrix(-0.24020537,0.2395832,0.2395832,0.24020537,3080.9724,-469.73082)"
         style="fill:#59abe3">
        <path
           inkscape:connector-curvature="0"
           transform="matrix(-0.73381084,0.73191014,0.73191014,0.73381084,4620.472,-1906.0295)"
           id="path5343"
           d="m 2670.6758,-290.61133 -4.4395,4.42969 7.8008,7.82226 -7.8223,7.80079 4.4297,4.4414 7.8223,-7.80273 4.4394,-4.42774 -4.4277,-4.4414 -7.8027,-7.82227 z"
           style="opacity:1;fill:#59abe3;fill-opacity:1;stroke:none;stroke-width:2.79999995;stroke-miterlimit:4;stroke-dasharray:none;stroke-opacity:1" />
      </g>
      <path
         inkscape:connector-curvature="0"
         id="path5345"
         d="m 2450.75,74.472574 -2.7518,2.744258 -1.5622,1.558771 1.5582,1.562189 2.7449,2.751777 1.5622,-1.558089 -2.745,-2.751776 2.7525,-2.744941 -1.5588,-1.562189 z"
         style="opacity:1;fill:#4183d7;fill-opacity:1;stroke:none;stroke-width:2.79999995;stroke-miterlimit:4;stroke-dasharray:none;stroke-opacity:1" />
    </g>
    <g
       transform="matrix(7.5872151,0,0,7.5872151,-18052.942,801.28582)"
       id="g5347">
      <g
         style="font-style:normal;font-variant:normal;font-weight:normal;font-stretch:normal;font-size:2.77929068px;line-height:125%;font-family:Stellar;-inkscape-font-specification:Stellar;letter-spacing:-0.07717176px;word-spacing:0px;fill:#22313f;fill-opacity:1;stroke:none;stroke-width:1px;stroke-linecap:butt;stroke-linejoin:miter;stroke-opacity:1"
         id="flowRoot5349">
        <path
           d="m 2386.6561,26.945429 0.2251,0 0,-1.945504 -0.2251,0 0,1.945504 z"
           style=""
           id="path6395" />
        <path
           d="m 2387.2195,26.945429 0.2251,0 0,-1.945504 -0.2251,0 0,1.945504 z"
           style=""
           id="path6397" />
        <path
           d="m 2387.7828,26.945429 0.2252,0 0,-1.945504 -0.2252,0 0,1.945504 z"
           style=""
           id="path6399" />
        <path
           d="m 2388.8486,26.414584 c 0,0.07782 0.011,0.544741 0.6225,0.544741 0.4252,0 0.5503,-0.261253 0.5503,-0.494714 0,-0.377983 -0.2668,-0.480817 -0.5197,-0.578092 -0.2057,-0.07782 -0.4002,-0.15564 -0.4002,-0.377984 0,-0.188991 0.1362,-0.314059 0.3446,-0.314059 0.2196,0 0.3224,0.144523 0.3224,0.325177 l 0,0.08894 0.2251,0 0,-0.08894 c 0,-0.141744 -0.078,-0.533624 -0.5475,-0.533624 -0.4864,0 -0.5698,0.375204 -0.5698,0.522506 0,0.383543 0.2724,0.489156 0.5281,0.58921 0.2029,0.07782 0.3919,0.152861 0.3919,0.366866 0,0.0945 -0.036,0.286267 -0.3252,0.286267 -0.2974,0 -0.4002,-0.158419 -0.4002,-0.336294 l 0,-0.09172 -0.2223,0 0,0.09172 z"
           style=""
           id="path6401" />
        <path
           d="m 2390.2763,26.945429 0.9061,0 0,-0.208447 -0.681,0 0,-0.614223 0.5503,0 0,-0.208447 -0.5503,0 0,-0.70594 0.6615,0 0,-0.208447 -0.8866,0 0,1.945504 z"
           style=""
           id="path6403" />
        <path
           d="m 2391.3975,26.414584 c 0,0.07782 0.011,0.544741 0.6226,0.544741 0.4252,0 0.5503,-0.261253 0.5503,-0.494714 0,-0.377983 -0.2668,-0.480817 -0.5198,-0.578092 -0.2056,-0.07782 -0.4002,-0.15564 -0.4002,-0.377984 0,-0.188991 0.1362,-0.314059 0.3446,-0.314059 0.2196,0 0.3224,0.144523 0.3224,0.325177 l 0,0.08894 0.2252,0 0,-0.08894 c 0,-0.141744 -0.078,-0.533624 -0.5476,-0.533624 -0.4863,0 -0.5697,0.375204 -0.5697,0.522506 0,0.383543 0.2724,0.489156 0.5281,0.58921 0.2028,0.07782 0.3918,0.152861 0.3918,0.366866 0,0.0945 -0.036,0.286267 -0.3251,0.286267 -0.2974,0 -0.4003,-0.158419 -0.4003,-0.336294 l 0,-0.09172 -0.2223,0 0,0.09172 z"
           style=""
           id="path6405" />
        <path
           d="m 2394.0197,26.361778 -0.2223,0 0,0.09172 c 0,0.200109 -0.1251,0.297384 -0.3252,0.297384 -0.353,0 -0.3974,-0.308501 -0.3974,-0.778201 0,-0.4697 0.044,-0.778201 0.3974,-0.778201 0.2029,0 0.328,0.08616 0.328,0.297384 l 0,0.09172 0.2195,0 0,-0.09172 c 0,-0.372425 -0.264,-0.505831 -0.5475,-0.505831 -0.5475,0 -0.6198,0.447466 -0.6198,0.986648 0,0.539182 0.072,0.986648 0.6198,0.986648 0.2835,0 0.5475,-0.127847 0.5475,-0.505831 l 0,-0.09172 z"
           style=""
           id="path6407" />
        <path
           d="m 2394.504,25.972677 c 0,-0.472479 0.033,-0.778201 0.3947,-0.778201 0.3613,0 0.403,0.305722 0.403,0.778201 0,0.472479 -0.042,0.778201 -0.403,0.778201 -0.3613,0 -0.3947,-0.305722 -0.3947,-0.778201 z m -0.2251,0 c 0,0.541962 0.067,0.986648 0.6198,0.986648 0.553,0 0.6281,-0.444686 0.6281,-0.986648 0,-0.541962 -0.075,-0.986648 -0.6281,-0.986648 -0.5531,0 -0.6198,0.444686 -0.6198,0.986648 z"
           style=""
           id="path6409" />
        <path
           d="m 2395.8519,26.945429 0.2251,0 0,-1.33406 0.4475,1.33406 0.2029,0 c 0.1473,-0.43079 0.3085,-0.908828 0.4558,-1.345177 l 0,1.345177 0.2223,0 0,-1.945504 -0.2445,0 c -0.1724,0.514169 -0.3586,1.050572 -0.5337,1.564741 l -0.5308,-1.564741 -0.2446,0 0,1.945504 z"
           style=""
           id="path6411" />
        <path
           d="m 2397.7452,26.945429 0.2251,0 0,-0.642016 0.2085,0 c 0.5447,0 0.6281,-0.364087 0.6281,-0.650354 0,-0.289047 -0.083,-0.653134 -0.6281,-0.653134 l -0.4336,0 0,1.945504 z m 0.2251,-1.737057 0.2085,0 c 0.353,0 0.403,0.19733 0.403,0.444687 0,0.247356 -0.05,0.42801 -0.403,0.439128 l -0.2085,0 0,-0.883815 z"
           style=""
           id="path6413" />
      </g>
      <g
         transform="matrix(0.19722726,0,0,0.19722726,1842.3681,82.387145)"
         style="font-style:normal;font-variant:normal;font-weight:normal;font-stretch:normal;font-size:5.0315609px;line-height:116.99999571%;font-family:Stellar;-inkscape-font-specification:Stellar;letter-spacing:-0.13970993px;word-spacing:0px;fill:#22313f;fill-opacity:1;stroke:none;stroke-width:1px;stroke-linecap:butt;stroke-linejoin:miter;stroke-opacity:1"
         id="flowRoot5357">
        <path
           d="m 2759.6197,-276.19321 c 0,0.14591 0.02,1.01637 1.1422,1.01637 0.7849,0 1.0163,-0.48806 1.0163,-0.93083 0,-0.70442 -0.483,-0.89562 -0.9459,-1.06669 -0.3371,-0.12579 -0.6591,-0.25661 -0.6591,-0.59876 0,-0.2868 0.2163,-0.478 0.5434,-0.478 0.3421,0 0.5031,0.22139 0.5031,0.49813 l 0,0.22642 0.5082,0 0,-0.22642 c 0,-0.26668 -0.1459,-0.99625 -1.0113,-0.99625 -0.8956,0 -1.0516,0.70442 -1.0516,0.97612 0,0.71951 0.4981,0.91071 0.961,1.09185 0.3321,0.12579 0.644,0.25158 0.644,0.5736 0,0.14088 -0.06,0.43271 -0.5081,0.43271 -0.473,0 -0.639,-0.24151 -0.639,-0.51825 l 0,-0.22642 -0.5032,0 0,0.22642 z"
           style="font-style:normal;font-variant:normal;font-weight:500;font-stretch:normal;line-height:116.99999571%;font-family:Stellar;-inkscape-font-specification:'Stellar Medium';fill:#22313f;fill-opacity:1"
           id="path6416" />
        <path
           d="m 2763.72,-276.23849 c 0,0.30692 -0.1207,0.59372 -0.483,0.59372 -0.3774,0 -0.5032,-0.37234 -0.5183,-0.89562 l 1.4944,0 0,-0.23145 c 0,-0.61385 -0.2264,-1.22267 -0.9761,-1.22267 -0.7447,0 -0.9912,0.59876 -0.9912,1.40884 0,0.78492 0.1912,1.40883 0.9912,1.40883 0.634,0 0.956,-0.45787 0.956,-1.06165 l -0.473,0 z m -0.483,-1.28808 c 0.3371,0 0.4881,0.24654 0.5132,0.62391 l -1.0264,0 c 0.025,-0.37737 0.1761,-0.62391 0.5132,-0.62391 z"
           style="font-style:normal;font-variant:normal;font-weight:500;font-stretch:normal;line-height:116.99999571%;font-family:Stellar;-inkscape-font-specification:'Stellar Medium';fill:#22313f;fill-opacity:1"
           id="path6418" />
        <path
           d="m 2764.7129,-275.20199 0.4729,0 0,-1.52457 c 0,-0.62894 0.2164,-0.80001 0.5284,-0.80001 0.3622,0 0.4377,0.23145 0.4478,0.70945 l 0,1.61513 0.478,0 0,-1.57488 c 0.01,-0.58869 0.2163,-0.7497 0.5233,-0.7497 0.3874,0 0.4478,0.26164 0.4478,0.80001 l 0,1.52457 0.4729,0 0,-1.56482 c 0,-0.8453 -0.2012,-1.2277 -0.9207,-1.2277 -0.2667,0 -0.5133,0.13082 -0.6894,0.36227 -0.1409,-0.22139 -0.3975,-0.36227 -0.7597,-0.36227 -0.2416,0 -0.4378,0.0956 -0.5636,0.21133 l -0.025,-0.18617 -0.4478,0 0.035,0.50819 0,2.25917 z"
           style="font-style:normal;font-variant:normal;font-weight:500;font-stretch:normal;line-height:116.99999571%;font-family:Stellar;-inkscape-font-specification:'Stellar Medium';fill:#22313f;fill-opacity:1"
           id="path6420" />
        <path
           d="m 2770.384,-276.99826 c 0,-0.85033 -0.5988,-0.99625 -0.9359,-0.99625 -0.3321,0 -0.6239,0.1912 -0.8453,0.49309 l 0.3925,0.27171 c 0.1107,-0.19623 0.3119,-0.29686 0.4528,-0.29686 0.1459,0 0.4629,0.0654 0.4629,0.52831 l 0,0.13585 c -0.1107,-0.0453 -0.2515,-0.0805 -0.4126,-0.0805 -0.6289,0 -0.9509,0.4629 -0.9509,0.90065 0,0.39246 0.1962,0.86542 0.9006,0.86542 0.2063,0 0.3673,-0.0704 0.478,-0.14088 l 0.01,0.11573 0.4729,0 c 0,-0.0453 0,-0.17611 -0.02,-0.43272 l 0,-1.36355 z m -0.8856,0.52328 c 0.1963,0 0.312,0.0352 0.4126,0.0755 l 0,0.56353 c -0.1056,0.13082 -0.2817,0.1912 -0.4629,0.1912 -0.3321,0 -0.4277,-0.1912 -0.4277,-0.39749 0,-0.23146 0.1862,-0.43272 0.478,-0.43272 z"
           style="font-style:normal;font-variant:normal;font-weight:500;font-stretch:normal;line-height:116.99999571%;font-family:Stellar;-inkscape-font-specification:'Stellar Medium';fill:#22313f;fill-opacity:1"
           id="path6422" />
        <path
           d="m 2771.0079,-275.20199 0.473,0 0,-1.52457 c 0,-0.62894 0.2365,-0.80001 0.5484,-0.80001 0.3925,0 0.473,0.26164 0.473,0.80001 l 0,1.52457 0.4729,0 0,-1.56482 c 0,-0.8453 -0.2264,-1.2277 -0.9459,-1.2277 -0.2616,0 -0.4528,0.0855 -0.5836,0.21636 l -0.035,-0.1912 -0.4377,0 0.035,0.51322 0,2.25414 z"
           style="font-style:normal;font-variant:normal;font-weight:500;font-stretch:normal;line-height:116.99999571%;font-family:Stellar;-inkscape-font-specification:'Stellar Medium';fill:#22313f;fill-opacity:1"
           id="path6424" />
        <path
           d="m 2775.3229,-276.99826 c 0,-0.85033 -0.5988,-0.99625 -0.9359,-0.99625 -0.3321,0 -0.6239,0.1912 -0.8453,0.49309 l 0.3924,0.27171 c 0.1107,-0.19623 0.312,-0.29686 0.4529,-0.29686 0.1459,0 0.4629,0.0654 0.4629,0.52831 l 0,0.13585 c -0.1107,-0.0453 -0.2516,-0.0805 -0.4126,-0.0805 -0.6289,0 -0.951,0.4629 -0.951,0.90065 0,0.39246 0.1963,0.86542 0.9007,0.86542 0.2063,0 0.3673,-0.0704 0.478,-0.14088 l 0.01,0.11573 0.473,0 c 0,-0.0453 0,-0.17611 -0.02,-0.43272 l 0,-1.36355 z m -0.8856,0.52328 c 0.1962,0 0.312,0.0352 0.4126,0.0755 l 0,0.56353 c -0.1057,0.13082 -0.2818,0.1912 -0.4629,0.1912 -0.3321,0 -0.4277,-0.1912 -0.4277,-0.39749 0,-0.23146 0.1862,-0.43272 0.478,-0.43272 z"
           style="font-style:normal;font-variant:normal;font-weight:500;font-stretch:normal;line-height:116.99999571%;font-family:Stellar;-inkscape-font-specification:'Stellar Medium';fill:#22313f;fill-opacity:1"
           id="path6426" />
        <path
           d="m 2778.894,-278.88006 -0.483,0 0,1.05662 c -0.1459,-0.11572 -0.312,-0.17107 -0.4982,-0.17107 -0.9107,0 -0.9912,1.00631 -0.9912,1.40884 0,0.40252 0.075,1.40883 0.9912,1.40883 0.2265,0 0.3875,-0.0654 0.4982,-0.16604 l 0.01,0.14089 0.4981,0 -0.02,-0.43775 0,-3.24032 z m -0.4679,2.29439 c 0,0.24151 0.025,0.9409 -0.5032,0.9409 -0.4981,0 -0.5132,-0.67926 -0.5132,-0.9409 0,-0.21636 0.015,-0.9409 0.5132,-0.9409 0.5283,0 0.5032,0.69938 0.5032,0.9409 z"
           style="font-style:normal;font-variant:normal;font-weight:500;font-stretch:normal;line-height:116.99999571%;font-family:Stellar;-inkscape-font-specification:'Stellar Medium';fill:#22313f;fill-opacity:1"
           id="path6428" />
        <path
           d="m 2780.8734,-276.23849 c 0,0.30692 -0.1208,0.59372 -0.4831,0.59372 -0.3773,0 -0.5031,-0.37234 -0.5182,-0.89562 l 1.4944,0 0,-0.23145 c 0,-0.61385 -0.2265,-1.22267 -0.9762,-1.22267 -0.7446,0 -0.9912,0.59876 -0.9912,1.40884 0,0.78492 0.1912,1.40883 0.9912,1.40883 0.634,0 0.956,-0.45787 0.956,-1.06165 l -0.4729,0 z m -0.4831,-1.28808 c 0.3371,0 0.4881,0.24654 0.5132,0.62391 l -1.0264,0 c 0.025,-0.37737 0.1761,-0.62391 0.5132,-0.62391 z"
           style="font-style:normal;font-variant:normal;font-weight:500;font-stretch:normal;line-height:116.99999571%;font-family:Stellar;-inkscape-font-specification:'Stellar Medium';fill:#22313f;fill-opacity:1"
           id="path6430" />
        <path
           d="m 2782.8902,-275.20199 1.6906,0 0,-0.49813 -1.1824,0 0,-0.93587 0.956,0 0,-0.49812 -0.956,0 0,-1.09185 1.1472,0 0,-0.49813 -1.6554,0 0,3.5221 z"
           style="font-style:normal;font-variant:normal;font-weight:500;font-stretch:normal;line-height:116.99999571%;font-family:Stellar;-inkscape-font-specification:'Stellar Medium';fill:#22313f;fill-opacity:1"
           id="path6432" />
        <path
           d="m 2785.1344,-275.20199 0.473,0 0,-1.52457 c 0,-0.62894 0.2365,-0.80001 0.5485,-0.80001 0.3924,0 0.4729,0.26164 0.4729,0.80001 l 0,1.52457 0.473,0 0,-1.56482 c 0,-0.8453 -0.2264,-1.2277 -0.9459,-1.2277 -0.2617,0 -0.4529,0.0855 -0.5837,0.21636 l -0.035,-0.1912 -0.4378,0 0.035,0.51322 0,2.25414 z"
           style="font-style:normal;font-variant:normal;font-weight:500;font-stretch:normal;line-height:116.99999571%;font-family:Stellar;-inkscape-font-specification:'Stellar Medium';fill:#22313f;fill-opacity:1"
           id="path6434" />
        <path
           d="m 2789.0241,-276.58567 c 0,0.24151 0.015,0.9409 -0.5032,0.9409 -0.4981,0 -0.5182,-0.72455 -0.5182,-0.9409 0,-0.26164 0.02,-0.9409 0.5182,-0.9409 0.5183,0 0.5032,0.69938 0.5032,0.9409 z m 0.4931,-1.38368 -0.4982,0 -0.01,0.14088 c -0.1157,-0.0956 -0.2768,-0.16604 -0.5032,-0.16604 -0.9208,0 -0.9912,1.00631 -0.9912,1.40884 0,0.40252 0.081,1.40883 0.9912,1.40883 0.1812,0 0.3522,-0.0553 0.5032,-0.17107 l 0,0.16101 c 0,0.36227 -0.1912,0.52832 -0.4629,0.52832 -0.1258,0 -0.3069,-0.0956 -0.4327,-0.30693 l -0.4126,0.28177 c 0.2163,0.2717 0.483,0.49309 0.8453,0.49309 0.4931,0 0.9409,-0.28177 0.9409,-1.00631 0,-0.62895 -0.01,-1.70067 -0.01,-2.32961 l 0.035,-0.44278 z"
           style="font-style:normal;font-variant:normal;font-weight:500;font-stretch:normal;line-height:116.99999571%;font-family:Stellar;-inkscape-font-specification:'Stellar Medium';fill:#22313f;fill-opacity:1"
           id="path6436" />
        <path
           d="m 2791.2796,-276.23849 c 0,0.30692 -0.1207,0.59372 -0.483,0.59372 -0.3774,0 -0.5032,-0.37234 -0.5183,-0.89562 l 1.4944,0 0,-0.23145 c 0,-0.61385 -0.2264,-1.22267 -0.9761,-1.22267 -0.7447,0 -0.9912,0.59876 -0.9912,1.40884 0,0.78492 0.1912,1.40883 0.9912,1.40883 0.634,0 0.956,-0.45787 0.956,-1.06165 l -0.473,0 z m -0.483,-1.28808 c 0.3371,0 0.4881,0.24654 0.5132,0.62391 l -1.0264,0 c 0.025,-0.37737 0.1761,-0.62391 0.5132,-0.62391 z"
           style="font-style:normal;font-variant:normal;font-weight:500;font-stretch:normal;line-height:116.99999571%;font-family:Stellar;-inkscape-font-specification:'Stellar Medium';fill:#22313f;fill-opacity:1"
           id="path6438" />
        <path
           d="m 2792.2725,-275.20199 0.473,0 0,-1.52457 c 0,-0.62894 0.2364,-0.80001 0.5484,-0.80001 0.3925,0 0.473,0.26164 0.473,0.80001 l 0,1.52457 0.4729,0 0,-1.56482 c 0,-0.8453 -0.2264,-1.2277 -0.9459,-1.2277 -0.2616,0 -0.4528,0.0855 -0.5837,0.21636 l -0.035,-0.1912 -0.4377,0 0.035,0.51322 0,2.25414 z"
           style="font-style:normal;font-variant:normal;font-weight:500;font-stretch:normal;line-height:116.99999571%;font-family:Stellar;-inkscape-font-specification:'Stellar Medium';fill:#22313f;fill-opacity:1"
           id="path6440" />
        <path
           d="m 2794.9007,-275.20199 0.478,0 0,-1.52457 c 0,-0.62894 0.2365,-0.80001 0.5484,-0.80001 0.3875,0 0.468,0.26164 0.468,0.80001 l 0,1.52457 0.478,0 0,-1.56482 c 0,-0.8453 -0.2214,-1.2277 -0.946,-1.2277 -0.2516,0 -0.4226,0.0654 -0.5484,0.17611 l 0,-1.06166 -0.478,0 0,3.67807 z"
           style="font-style:normal;font-variant:normal;font-weight:500;font-stretch:normal;line-height:116.99999571%;font-family:Stellar;-inkscape-font-specification:'Stellar Medium';fill:#22313f;fill-opacity:1"
           id="path6442" />
        <path
           d="m 2799.2288,-276.99826 c 0,-0.85033 -0.5987,-0.99625 -0.9358,-0.99625 -0.3321,0 -0.6239,0.1912 -0.8453,0.49309 l 0.3924,0.27171 c 0.1107,-0.19623 0.312,-0.29686 0.4529,-0.29686 0.1459,0 0.4629,0.0654 0.4629,0.52831 l 0,0.13585 c -0.1107,-0.0453 -0.2516,-0.0805 -0.4126,-0.0805 -0.629,0 -0.951,0.4629 -0.951,0.90065 0,0.39246 0.1963,0.86542 0.9007,0.86542 0.2063,0 0.3673,-0.0704 0.478,-0.14088 l 0,0.11573 0.473,0 c 0,-0.0453 0,-0.17611 -0.02,-0.43272 l 0,-1.36355 z m -0.8855,0.52328 c 0.1962,0 0.3119,0.0352 0.4126,0.0755 l 0,0.56353 c -0.1057,0.13082 -0.2818,0.1912 -0.4629,0.1912 -0.3321,0 -0.4277,-0.1912 -0.4277,-0.39749 0,-0.23146 0.1862,-0.43272 0.478,-0.43272 z"
           style="font-style:normal;font-variant:normal;font-weight:500;font-stretch:normal;line-height:116.99999571%;font-family:Stellar;-inkscape-font-specification:'Stellar Medium';fill:#22313f;fill-opacity:1"
           id="path6444" />
        <path
           d="m 2799.8477,-275.20199 0.473,0 0,-1.52457 c 0,-0.62894 0.166,-0.80001 0.483,-0.80001 0.065,0 0.1761,0.0352 0.2264,0.0906 l 0.2969,-0.39246 c -0.1409,-0.11069 -0.3069,-0.16604 -0.4981,-0.16604 -0.2415,0 -0.468,0.15095 -0.5485,0.41259 l -0.02,-0.38743 -0.4428,0 0.03,0.51322 0,2.25414 z"
           style="font-style:normal;font-variant:normal;font-weight:500;font-stretch:normal;line-height:116.99999571%;font-family:Stellar;-inkscape-font-specification:'Stellar Medium';fill:#22313f;fill-opacity:1"
           id="path6446" />
        <path
           d="m 2801.5841,-275.20199 0,-2.76736 0.478,0 0,2.76736 -0.478,0 z m 0.5233,-3.53216 c 0,-0.16604 -0.1258,-0.29183 -0.2768,-0.29183 -0.161,0 -0.2868,0.12579 -0.2868,0.29183 0,0.16101 0.1258,0.29183 0.2868,0.29183 0.151,0 0.2768,-0.13082 0.2768,-0.29183 z"
           style="font-style:normal;font-variant:normal;font-weight:500;font-stretch:normal;line-height:116.99999571%;font-family:Stellar;-inkscape-font-specification:'Stellar Medium';fill:#22313f;fill-opacity:1"
           id="path6448" />
        <path
           d="m 2804.4604,-276.99826 c 0,-0.85033 -0.5988,-0.99625 -0.9359,-0.99625 -0.3321,0 -0.6239,0.1912 -0.8453,0.49309 l 0.3925,0.27171 c 0.1107,-0.19623 0.3119,-0.29686 0.4528,-0.29686 0.1459,0 0.4629,0.0654 0.4629,0.52831 l 0,0.13585 c -0.1107,-0.0453 -0.2516,-0.0805 -0.4126,-0.0805 -0.6289,0 -0.9509,0.4629 -0.9509,0.90065 0,0.39246 0.1962,0.86542 0.9006,0.86542 0.2063,0 0.3673,-0.0704 0.478,-0.14088 l 0.01,0.11573 0.4729,0 c 0,-0.0453 0,-0.17611 -0.02,-0.43272 l 0,-1.36355 z m -0.8856,0.52328 c 0.1963,0 0.312,0.0352 0.4126,0.0755 l 0,0.56353 c -0.1056,0.13082 -0.2817,0.1912 -0.4629,0.1912 -0.3321,0 -0.4277,-0.1912 -0.4277,-0.39749 0,-0.23146 0.1862,-0.43272 0.478,-0.43272 z"
           style="font-style:normal;font-variant:normal;font-weight:500;font-stretch:normal;line-height:116.99999571%;font-family:Stellar;-inkscape-font-specification:'Stellar Medium';fill:#22313f;fill-opacity:1"
           id="path6450" />
        <path
           d="m 2808.0315,-278.88006 -0.483,0 0,1.05662 c -0.1459,-0.11572 -0.312,-0.17107 -0.4981,-0.17107 -0.9107,0 -0.9912,1.00631 -0.9912,1.40884 0,0.40252 0.075,1.40883 0.9912,1.40883 0.2264,0 0.3874,-0.0654 0.4981,-0.16604 l 0.01,0.14089 0.4982,0 -0.02,-0.43775 0,-3.24032 z m -0.4679,2.29439 c 0,0.24151 0.025,0.9409 -0.5032,0.9409 -0.4981,0 -0.5132,-0.67926 -0.5132,-0.9409 0,-0.21636 0.015,-0.9409 0.5132,-0.9409 0.5284,0 0.5032,0.69938 0.5032,0.9409 z"
           style="font-style:normal;font-variant:normal;font-weight:500;font-stretch:normal;line-height:116.99999571%;font-family:Stellar;-inkscape-font-specification:'Stellar Medium';fill:#22313f;fill-opacity:1"
           id="path6452" />
        <path
           d="m 2810.0109,-276.23849 c 0,0.30692 -0.1208,0.59372 -0.483,0.59372 -0.3774,0 -0.5032,-0.37234 -0.5183,-0.89562 l 1.4944,0 0,-0.23145 c 0,-0.61385 -0.2264,-1.22267 -0.9761,-1.22267 -0.7447,0 -0.9913,0.59876 -0.9913,1.40884 0,0.78492 0.1912,1.40883 0.9913,1.40883 0.6339,0 0.956,-0.45787 0.956,-1.06165 l -0.473,0 z m -0.483,-1.28808 c 0.3371,0 0.488,0.24654 0.5132,0.62391 l -1.0265,0 c 0.025,-0.37737 0.1762,-0.62391 0.5133,-0.62391 z"
           style="font-style:normal;font-variant:normal;font-weight:500;font-stretch:normal;line-height:116.99999571%;font-family:Stellar;-inkscape-font-specification:'Stellar Medium';fill:#22313f;fill-opacity:1"
           id="path6454" />
        <path
           d="m 2811.9774,-276.19321 c 0,0.14591 0.02,1.01637 1.1422,1.01637 0.7849,0 1.0164,-0.48806 1.0164,-0.93083 0,-0.70442 -0.4831,-0.89562 -0.946,-1.06669 -0.3371,-0.12579 -0.6591,-0.25661 -0.6591,-0.59876 0,-0.2868 0.2164,-0.478 0.5434,-0.478 0.3422,0 0.5032,0.22139 0.5032,0.49813 l 0,0.22642 0.5082,0 0,-0.22642 c 0,-0.26668 -0.146,-0.99625 -1.0114,-0.99625 -0.8956,0 -1.0516,0.70442 -1.0516,0.97612 0,0.71951 0.4981,0.91071 0.9611,1.09185 0.332,0.12579 0.644,0.25158 0.644,0.5736 0,0.14088 -0.06,0.43271 -0.5082,0.43271 -0.473,0 -0.639,-0.24151 -0.639,-0.51825 l 0,-0.22642 -0.5032,0 0,0.22642 z"
           style="font-style:normal;font-variant:normal;font-weight:500;font-stretch:normal;line-height:116.99999571%;font-family:Stellar;-inkscape-font-specification:'Stellar Medium';fill:#22313f;fill-opacity:1"
           id="path6456" />
        <path
           d="m 2816.0677,-276.58567 c 0,0.24151 0.025,0.9409 -0.4981,0.9409 -0.5334,0 -0.5183,-0.69939 -0.5183,-0.9409 0,-0.24152 -0.015,-0.9409 0.5183,-0.9409 0.5233,0 0.4981,0.69938 0.4981,0.9409 z m 0.483,0 c 0,-0.40253 0.01,-1.40884 -0.9811,-1.40884 -0.9862,0 -0.9912,1.00631 -0.9912,1.40884 0,0.40252 0.01,1.40883 0.9912,1.40883 0.9862,0 0.9811,-1.00631 0.9811,-1.40883 z"
           style="font-style:normal;font-variant:normal;font-weight:500;font-stretch:normal;line-height:116.99999571%;font-family:Stellar;-inkscape-font-specification:'Stellar Medium';fill:#22313f;fill-opacity:1"
           id="path6458" />
        <path
           d="m 2816.8255,-277.96935 0,0.4629 0.2415,0 0,2.30446 0.473,0 0,-2.30446 0.5585,0 0,-0.4629 -0.5585,0 0,-0.0553 c 0,-0.35724 0.096,-0.41259 0.1861,-0.41259 0.081,0 0.1409,0.0654 0.2063,0.15095 l 0.307,-0.30693 c -0.086,-0.11069 -0.2667,-0.31195 -0.5133,-0.31195 -0.3622,0 -0.6591,0.24654 -0.6591,0.88052 l 0,0.0553 -0.2415,0 z"
           style="font-style:normal;font-variant:normal;font-weight:500;font-stretch:normal;line-height:116.99999571%;font-family:Stellar;-inkscape-font-specification:'Stellar Medium';fill:#22313f;fill-opacity:1"
           id="path6460" />
        <path
           d="m 2818.3981,-277.50645 0.3673,0 0,1.33337 c 0,0.52328 0,0.99624 0.5686,0.99624 0.166,0 0.2868,-0.0352 0.4729,-0.18616 l -0.2868,-0.36228 c -0.03,0.0453 -0.065,0.0805 -0.1358,0.0805 -0.1258,0 -0.1459,-0.1761 -0.1459,-0.52831 l 0,-1.33337 0.5333,0 0,-0.4629 -0.5333,0 0,-0.54341 -0.473,0 0,0.54341 -0.3673,0 0,0.4629 z"
           style="font-style:normal;font-variant:normal;font-weight:500;font-stretch:normal;line-height:116.99999571%;font-family:Stellar;-inkscape-font-specification:'Stellar Medium';fill:#22313f;fill-opacity:1"
           id="path6462" />
        <path
           d="m 2823.2579,-277.96935 -0.4881,0 c -0.1409,0.58366 -0.2918,1.20757 -0.4377,1.8013 l -0.4328,-1.8013 -0.4679,0 c -0.1358,0.58366 -0.2918,1.20254 -0.4327,1.79627 l -0.4378,-1.79627 -0.488,0 0.6994,2.76736 0.4478,0 c 0.1056,-0.43272 0.2365,-0.93587 0.4478,-1.73086 l 0.4377,1.73086 0.4579,0 0.6944,-2.76736 z"
           style="font-style:normal;font-variant:normal;font-weight:500;font-stretch:normal;line-height:116.99999571%;font-family:Stellar;-inkscape-font-specification:'Stellar Medium';fill:#22313f;fill-opacity:1"
           id="path6464" />
        <path
           d="m 2825.2631,-276.99826 c 0,-0.85033 -0.5988,-0.99625 -0.9359,-0.99625 -0.3321,0 -0.6239,0.1912 -0.8453,0.49309 l 0.3925,0.27171 c 0.1107,-0.19623 0.3119,-0.29686 0.4528,-0.29686 0.1459,0 0.4629,0.0654 0.4629,0.52831 l 0,0.13585 c -0.1107,-0.0453 -0.2516,-0.0805 -0.4126,-0.0805 -0.6289,0 -0.9509,0.4629 -0.9509,0.90065 0,0.39246 0.1962,0.86542 0.9006,0.86542 0.2063,0 0.3673,-0.0704 0.478,-0.14088 l 0.01,0.11573 0.473,0 c 0,-0.0453 0,-0.17611 -0.02,-0.43272 l 0,-1.36355 z m -0.8856,0.52328 c 0.1963,0 0.312,0.0352 0.4126,0.0755 l 0,0.56353 c -0.1056,0.13082 -0.2817,0.1912 -0.4629,0.1912 -0.3321,0 -0.4277,-0.1912 -0.4277,-0.39749 0,-0.23146 0.1862,-0.43272 0.478,-0.43272 z"
           style="font-style:normal;font-variant:normal;font-weight:500;font-stretch:normal;line-height:116.99999571%;font-family:Stellar;-inkscape-font-specification:'Stellar Medium';fill:#22313f;fill-opacity:1"
           id="path6466" />
        <path
           d="m 2825.882,-275.20199 0.4729,0 0,-1.52457 c 0,-0.62894 0.1661,-0.80001 0.4831,-0.80001 0.065,0 0.1761,0.0352 0.2264,0.0906 l 0.2968,-0.39246 c -0.1408,-0.11069 -0.3069,-0.16604 -0.4981,-0.16604 -0.2415,0 -0.4679,0.15095 -0.5484,0.41259 l -0.02,-0.38743 -0.4428,0 0.03,0.51322 0,2.25414 z"
           style="font-style:normal;font-variant:normal;font-weight:500;font-stretch:normal;line-height:116.99999571%;font-family:Stellar;-inkscape-font-specification:'Stellar Medium';fill:#22313f;fill-opacity:1"
           id="path6468" />
        <path
           d="m 2828.8797,-276.23849 c 0,0.30692 -0.1207,0.59372 -0.483,0.59372 -0.3774,0 -0.5031,-0.37234 -0.5182,-0.89562 l 1.4943,0 0,-0.23145 c 0,-0.61385 -0.2264,-1.22267 -0.9761,-1.22267 -0.7447,0 -0.9912,0.59876 -0.9912,1.40884 0,0.78492 0.1912,1.40883 0.9912,1.40883 0.634,0 0.956,-0.45787 0.956,-1.06165 l -0.473,0 z m -0.483,-1.28808 c 0.3371,0 0.4881,0.24654 0.5132,0.62391 l -1.0264,0 c 0.025,-0.37737 0.1761,-0.62391 0.5132,-0.62391 z"
           style="font-style:normal;font-variant:normal;font-weight:500;font-stretch:normal;line-height:116.99999571%;font-family:Stellar;-inkscape-font-specification:'Stellar Medium';fill:#22313f;fill-opacity:1"
           id="path6470" />
        <path
           d="m 2761.0688,-270.35156 c 0,0.30692 -0.1208,0.59372 -0.483,0.59372 -0.3774,0 -0.5032,-0.37233 -0.5183,-0.89562 l 1.4944,0 0,-0.23145 c 0,-0.61385 -0.2264,-1.22267 -0.9761,-1.22267 -0.7447,0 -0.9913,0.59876 -0.9913,1.40884 0,0.78492 0.1912,1.40884 0.9913,1.40884 0.6339,0 0.956,-0.45787 0.956,-1.06166 l -0.473,0 z m -0.483,-1.28808 c 0.3371,0 0.488,0.24654 0.5132,0.62391 l -1.0265,0 c 0.025,-0.37737 0.1761,-0.62391 0.5133,-0.62391 z"
           style="font-style:normal;font-variant:normal;font-weight:500;font-stretch:normal;line-height:116.99999571%;font-family:Stellar;-inkscape-font-specification:'Stellar Medium';fill:#22313f;fill-opacity:1"
           id="path6472" />
        <path
           d="m 2765.2341,-270.46729 -0.5031,0 0,0.22642 c 0,0.30693 -0.1963,0.45284 -0.5082,0.45284 -0.5636,0 -0.634,-0.50818 -0.634,-1.28808 0,-0.77989 0.07,-1.28808 0.634,-1.28808 0.317,0 0.5132,0.13082 0.5132,0.45284 l 0,0.22642 0.4981,0 0,-0.22642 c 0,-0.69938 -0.488,-0.95096 -1.0113,-0.95096 -1.0063,0 -1.1372,0.81008 -1.1372,1.7862 0,0.97613 0.1309,1.78621 1.1372,1.78621 0.5233,0 1.0113,-0.24152 1.0113,-0.95097 l 0,-0.22642 z"
           style="font-style:normal;font-variant:normal;font-weight:500;font-stretch:normal;line-height:116.99999571%;font-family:Stellar;-inkscape-font-specification:'Stellar Medium';fill:#22313f;fill-opacity:1"
           id="path6474" />
        <path
           d="m 2765.7858,-269.31506 0,-2.76736 0.478,0 0,2.76736 -0.478,0 z m 0.5233,-3.53216 c 0,-0.16604 -0.1258,-0.29183 -0.2768,-0.29183 -0.161,0 -0.2868,0.12579 -0.2868,0.29183 0,0.16101 0.1258,0.29183 0.2868,0.29183 0.151,0 0.2768,-0.13082 0.2768,-0.29183 z"
           style="font-style:normal;font-variant:normal;font-weight:500;font-stretch:normal;line-height:116.99999571%;font-family:Stellar;-inkscape-font-specification:'Stellar Medium';fill:#22313f;fill-opacity:1"
           id="path6476" />
        <path
           d="m 2768.2244,-270.35156 c 0,0.30692 -0.1208,0.59372 -0.4831,0.59372 -0.3773,0 -0.5031,-0.37233 -0.5182,-0.89562 l 1.4943,0 0,-0.23145 c 0,-0.61385 -0.2264,-1.22267 -0.9761,-1.22267 -0.7446,0 -0.9912,0.59876 -0.9912,1.40884 0,0.78492 0.1912,1.40884 0.9912,1.40884 0.634,0 0.956,-0.45787 0.956,-1.06166 l -0.4729,0 z m -0.4831,-1.28808 c 0.3371,0 0.4881,0.24654 0.5132,0.62391 l -1.0264,0 c 0.025,-0.37737 0.1761,-0.62391 0.5132,-0.62391 z m -0.1409,-0.75474 0.1409,-0.2717 0.1459,0.2717 0.5183,0 -0.4579,-0.90568 -0.4025,0 -0.4579,0.90568 0.5132,0 z"
           style="font-style:normal;font-variant:normal;font-weight:500;font-stretch:normal;line-height:116.99999571%;font-family:Stellar;-inkscape-font-specification:'Stellar Medium';fill:#22313f;fill-opacity:1"
           id="path6478" />
        <path
           d="m 2769.1681,-269.31506 0.4729,0 0,-1.52456 c 0,-0.62895 0.2365,-0.80002 0.5485,-0.80002 0.3924,0 0.473,0.26164 0.473,0.80002 l 0,1.52456 0.4729,0 0,-1.56482 c 0,-0.8453 -0.2264,-1.2277 -0.9459,-1.2277 -0.2617,0 -0.4529,0.0855 -0.5837,0.21636 l -0.035,-0.1912 -0.4377,0 0.035,0.51322 0,2.25414 z"
           style="font-style:normal;font-variant:normal;font-weight:500;font-stretch:normal;line-height:116.99999571%;font-family:Stellar;-inkscape-font-specification:'Stellar Medium';fill:#22313f;fill-opacity:1"
           id="path6480" />
        <path
           d="m 2773.0314,-270.35156 c 0,0.35724 -0.1309,0.59372 -0.4076,0.59372 -0.4075,0 -0.5484,-0.33711 -0.5484,-0.9409 0,-0.60379 0.1409,-0.9409 0.5484,-0.9409 0.2767,0 0.4126,0.21132 0.4126,0.59372 l 0.4629,0 c 0,-0.59875 -0.3069,-1.06166 -0.8755,-1.06166 -0.7648,0 -1.0264,0.68933 -1.0264,1.40884 0,0.71951 0.2616,1.40884 1.0264,1.40884 0.5233,0 0.8755,-0.37234 0.8755,-1.06166 l -0.4679,0 z"
           style="font-style:normal;font-variant:normal;font-weight:500;font-stretch:normal;line-height:116.99999571%;font-family:Stellar;-inkscape-font-specification:'Stellar Medium';fill:#22313f;fill-opacity:1"
           id="path6482" />
        <path
           d="m 2773.9536,-269.31506 0,-2.76736 0.478,0 0,2.76736 -0.478,0 z m 0.5232,-3.53216 c 0,-0.16604 -0.1258,-0.29183 -0.2767,-0.29183 -0.161,0 -0.2868,0.12579 -0.2868,0.29183 0,0.16101 0.1258,0.29183 0.2868,0.29183 0.1509,0 0.2767,-0.13082 0.2767,-0.29183 z"
           style="font-style:normal;font-variant:normal;font-weight:500;font-stretch:normal;line-height:116.99999571%;font-family:Stellar;-inkscape-font-specification:'Stellar Medium';fill:#22313f;fill-opacity:1"
           id="path6484" />
        <path
           d="m 2776.8299,-271.11133 c 0,-0.85033 -0.5988,-0.99625 -0.9359,-0.99625 -0.3321,0 -0.6239,0.1912 -0.8453,0.4931 l 0.3925,0.2717 c 0.1107,-0.19623 0.3119,-0.29686 0.4528,-0.29686 0.1459,0 0.4629,0.0654 0.4629,0.52831 l 0,0.13585 c -0.1107,-0.0453 -0.2516,-0.0805 -0.4126,-0.0805 -0.6289,0 -0.9509,0.4629 -0.9509,0.90065 0,0.39246 0.1962,0.86543 0.9006,0.86543 0.2063,0 0.3673,-0.0704 0.478,-0.14089 l 0.01,0.11573 0.473,0 c 0,-0.0453 0,-0.17611 -0.02,-0.43271 l 0,-1.36356 z m -0.8856,0.52328 c 0.1962,0 0.312,0.0352 0.4126,0.0755 l 0,0.56353 c -0.1057,0.13082 -0.2818,0.1912 -0.4629,0.1912 -0.3321,0 -0.4277,-0.1912 -0.4277,-0.39749 0,-0.23145 0.1862,-0.43272 0.478,-0.43272 z"
           style="font-style:normal;font-variant:normal;font-weight:500;font-stretch:normal;line-height:116.99999571%;font-family:Stellar;-inkscape-font-specification:'Stellar Medium';fill:#22313f;fill-opacity:1"
           id="path6486" />
        <path
           d="m 2780.401,-272.99313 -0.483,0 0,1.05663 c -0.1459,-0.11573 -0.312,-0.17108 -0.4981,-0.17108 -0.9108,0 -0.9913,1.00632 -0.9913,1.40884 0,0.40253 0.075,1.40884 0.9913,1.40884 0.2264,0 0.3874,-0.0654 0.4981,-0.16604 l 0,0.14088 0.4981,0 -0.02,-0.43775 0,-3.24032 z m -0.4679,2.29439 c 0,0.24152 0.025,0.9409 -0.5032,0.9409 -0.4981,0 -0.5132,-0.67926 -0.5132,-0.9409 0,-0.21636 0.015,-0.9409 0.5132,-0.9409 0.5283,0 0.5032,0.69939 0.5032,0.9409 z"
           style="font-style:normal;font-variant:normal;font-weight:500;font-stretch:normal;line-height:116.99999571%;font-family:Stellar;-inkscape-font-specification:'Stellar Medium';fill:#22313f;fill-opacity:1"
           id="path6488" />
        <path
           d="m 2782.769,-271.11133 c 0,-0.85033 -0.5988,-0.99625 -0.9359,-0.99625 -0.3321,0 -0.6239,0.1912 -0.8453,0.4931 l 0.3925,0.2717 c 0.1107,-0.19623 0.3119,-0.29686 0.4528,-0.29686 0.1459,0 0.4629,0.0654 0.4629,0.52831 l 0,0.13585 c -0.1107,-0.0453 -0.2516,-0.0805 -0.4126,-0.0805 -0.6289,0 -0.9509,0.4629 -0.9509,0.90065 0,0.39246 0.1962,0.86543 0.9006,0.86543 0.2063,0 0.3673,-0.0704 0.478,-0.14089 l 0.01,0.11573 0.473,0 c 0,-0.0453 0,-0.17611 -0.02,-0.43271 l 0,-1.36356 z m -0.8856,0.52328 c 0.1963,0 0.312,0.0352 0.4126,0.0755 l 0,0.56353 c -0.1056,0.13082 -0.2818,0.1912 -0.4629,0.1912 -0.3321,0 -0.4277,-0.1912 -0.4277,-0.39749 0,-0.23145 0.1862,-0.43272 0.478,-0.43272 z"
           style="font-style:normal;font-variant:normal;font-weight:500;font-stretch:normal;line-height:116.99999571%;font-family:Stellar;-inkscape-font-specification:'Stellar Medium';fill:#22313f;fill-opacity:1"
           id="path6490" />
        <path
           d="m 2786.5162,-270.46729 -0.5031,0 0,0.22642 c 0,0.30693 -0.1963,0.45284 -0.5082,0.45284 -0.5636,0 -0.634,-0.50818 -0.634,-1.28808 0,-0.77989 0.07,-1.28808 0.634,-1.28808 0.317,0 0.5132,0.13082 0.5132,0.45284 l 0,0.22642 0.4981,0 0,-0.22642 c 0,-0.69938 -0.488,-0.95096 -1.0113,-0.95096 -1.0063,0 -1.1371,0.81008 -1.1371,1.7862 0,0.97613 0.1308,1.78621 1.1371,1.78621 0.5233,0 1.0113,-0.24152 1.0113,-0.95097 l 0,-0.22642 z"
           style="font-style:normal;font-variant:normal;font-weight:500;font-stretch:normal;line-height:116.99999571%;font-family:Stellar;-inkscape-font-specification:'Stellar Medium';fill:#22313f;fill-opacity:1"
           id="path6492" />
        <path
           d="m 2788.4667,-270.69874 c 0,0.24152 0.025,0.9409 -0.4982,0.9409 -0.5333,0 -0.5182,-0.69938 -0.5182,-0.9409 0,-0.24151 -0.015,-0.9409 0.5182,-0.9409 0.5233,0 0.4982,0.69939 0.4982,0.9409 z m 0.483,0 c 0,-0.40252 0,-1.40884 -0.9812,-1.40884 -0.9862,0 -0.9912,1.00632 -0.9912,1.40884 0,0.40253 0.01,1.40884 0.9912,1.40884 0.9862,0 0.9812,-1.00631 0.9812,-1.40884 z"
           style="font-style:normal;font-variant:normal;font-weight:500;font-stretch:normal;line-height:116.99999571%;font-family:Stellar;-inkscape-font-specification:'Stellar Medium';fill:#22313f;fill-opacity:1"
           id="path6494" />
        <path
           d="m 2789.4106,-269.31506 0.473,0 0,-1.52456 c 0,-0.62895 0.2163,-0.80002 0.5283,-0.80002 0.3623,0 0.4377,0.23145 0.4478,0.70945 l 0,1.61513 0.478,0 0,-1.57488 c 0.01,-0.58869 0.2164,-0.7497 0.5233,-0.7497 0.3874,0 0.4478,0.26164 0.4478,0.80002 l 0,1.52456 0.473,0 0,-1.56482 c 0,-0.8453 -0.2013,-1.2277 -0.9208,-1.2277 -0.2667,0 -0.5132,0.13082 -0.6893,0.36228 -0.1409,-0.22139 -0.3975,-0.36228 -0.7598,-0.36228 -0.2415,0 -0.4377,0.0956 -0.5635,0.21133 l -0.025,-0.18617 -0.4478,0 0.035,0.50819 0,2.25917 z"
           style="font-style:normal;font-variant:normal;font-weight:500;font-stretch:normal;line-height:116.99999571%;font-family:Stellar;-inkscape-font-specification:'Stellar Medium';fill:#22313f;fill-opacity:1"
           id="path6496" />
        <path
           d="m 2793.2704,-268.17793 0.478,0 0,-1.28305 c 0.1459,0.11573 0.317,0.17108 0.5031,0.17108 0.9107,0 0.9912,-1.00631 0.9912,-1.40884 0,-0.40252 -0.075,-1.40884 -0.9912,-1.40884 -0.2163,0 -0.3773,0.0755 -0.5031,0.17108 l -0.01,-0.14592 -0.4981,0 c 0,0.1912 0.02,0.26667 0.025,0.43272 l 0,3.47177 z m 0.4629,-2.52081 c 0,-0.24151 -0.025,-0.9409 0.5031,-0.9409 0.4982,0 0.5183,0.67926 0.5183,0.9409 0,0.21636 -0.02,0.9409 -0.5183,0.9409 -0.5283,0 -0.5031,-0.69938 -0.5031,-0.9409 z"
           style="font-style:normal;font-variant:normal;font-weight:500;font-stretch:normal;line-height:116.99999571%;font-family:Stellar;-inkscape-font-specification:'Stellar Medium';fill:#22313f;fill-opacity:1"
           id="path6498" />
        <path
           d="m 2797.6759,-272.08242 -0.473,0 0,1.52456 c 0,0.62895 -0.2314,0.80002 -0.5434,0.80002 -0.3924,0 -0.478,-0.26164 -0.478,-0.80002 l 0,-1.52456 -0.4729,0 0,1.56482 c 0,0.8453 0.2264,1.2277 0.9509,1.2277 0.2566,0 0.4478,-0.0855 0.5837,-0.21636 l 0.035,0.1912 0.4327,0 -0.035,-0.51322 0,-2.25414 z"
           style="font-style:normal;font-variant:normal;font-weight:500;font-stretch:normal;line-height:116.99999571%;font-family:Stellar;-inkscape-font-specification:'Stellar Medium';fill:#22313f;fill-opacity:1"
           id="path6500" />
        <path
           d="m 2798.0748,-271.61952 0.3673,0 0,1.33337 c 0,0.52328 0,0.99625 0.5686,0.99625 0.166,0 0.2868,-0.0352 0.4729,-0.18617 l -0.2868,-0.36227 c -0.03,0.0453 -0.065,0.0805 -0.1358,0.0805 -0.1258,0 -0.1459,-0.1761 -0.1459,-0.52831 l 0,-1.33337 0.5333,0 0,-0.4629 -0.5333,0 0,-0.54341 -0.473,0 0,0.54341 -0.3673,0 0,0.4629 z"
           style="font-style:normal;font-variant:normal;font-weight:500;font-stretch:normal;line-height:116.99999571%;font-family:Stellar;-inkscape-font-specification:'Stellar Medium';fill:#22313f;fill-opacity:1"
           id="path6502" />
        <path
           d="m 2801.6891,-271.11133 c 0,-0.85033 -0.5988,-0.99625 -0.9359,-0.99625 -0.332,0 -0.6239,0.1912 -0.8453,0.4931 l 0.3925,0.2717 c 0.1107,-0.19623 0.3119,-0.29686 0.4528,-0.29686 0.1459,0 0.4629,0.0654 0.4629,0.52831 l 0,0.13585 c -0.1107,-0.0453 -0.2515,-0.0805 -0.4126,-0.0805 -0.6289,0 -0.9509,0.4629 -0.9509,0.90065 0,0.39246 0.1962,0.86543 0.9006,0.86543 0.2063,0 0.3673,-0.0704 0.478,-0.14089 l 0.01,0.11573 0.4729,0 c 0,-0.0453 0,-0.17611 -0.02,-0.43271 l 0,-1.36356 z m -0.8856,0.52328 c 0.1963,0 0.312,0.0352 0.4126,0.0755 l 0,0.56353 c -0.1056,0.13082 -0.2817,0.1912 -0.4629,0.1912 -0.332,0 -0.4276,-0.1912 -0.4276,-0.39749 0,-0.23145 0.1861,-0.43272 0.4779,-0.43272 z"
           style="font-style:normal;font-variant:normal;font-weight:500;font-stretch:normal;line-height:116.99999571%;font-family:Stellar;-inkscape-font-specification:'Stellar Medium';fill:#22313f;fill-opacity:1"
           id="path6504" />
        <path
           d="m 2802.8398,-268.67605 c 0,0.16604 0.081,0.37233 0.3271,0.37233 0.2465,0 0.4126,-0.15598 0.4126,-0.44781 0,-0.26164 -0.1409,-0.43774 -0.4076,-0.40755 l 0.05,-0.13585 c 0.4881,-0.0252 0.8101,-0.3975 0.8101,-1.05663 l -0.4679,0 c 0,0.35724 -0.1308,0.59372 -0.4076,0.59372 -0.4075,0 -0.5484,-0.33711 -0.5484,-0.9409 0,-0.60379 0.1409,-0.9409 0.5484,-0.9409 0.2768,0 0.4126,0.21132 0.4126,0.59372 l 0.4629,0 c 0,-0.59875 -0.3069,-1.06166 -0.8755,-1.06166 -0.7648,0 -1.0264,0.68933 -1.0264,1.40884 0,0.65913 0.2163,1.28808 0.8352,1.38871 -0.1258,0.34215 -0.1258,0.40756 -0.1258,0.49309 l 0.2516,0 c 0,-0.0201 0.01,-0.0855 0.06,-0.0855 0.055,0 0.065,0.0855 0.065,0.15094 0,0.0704 -0.01,0.15598 -0.065,0.15598 -0.055,0 -0.06,-0.0654 -0.06,-0.0805 l -0.2516,0 z"
           style="font-style:normal;font-variant:normal;font-weight:500;font-stretch:normal;line-height:116.99999571%;font-family:Stellar;-inkscape-font-specification:'Stellar Medium';fill:#22313f;fill-opacity:1"
           id="path6506" />
        <path
           d="m 2806.1857,-269.74777 c 0.02,0.2566 0.02,0.38743 0.02,0.43271 l -0.473,0 -0.01,-0.11573 c -0.1107,0.0704 -0.2717,0.14089 -0.478,0.14089 -0.7045,0 -0.9007,-0.47297 -0.9007,-0.86543 0,-0.43775 0.322,-0.90065 0.951,-0.90065 0.161,0 0.3019,0.0352 0.4126,0.0805 l 0,-0.13585 c 0,-0.4629 -0.317,-0.52831 -0.4629,-0.52831 -0.1409,0 -0.3422,0.10063 -0.4529,0.29686 l -0.3924,-0.2717 c 0.2214,-0.3019 0.5132,-0.4931 0.8453,-0.4931 0.3371,0 0.9358,0.14592 0.9358,0.99625 l 0,1.36356 z m -0.8855,-0.84028 c -0.2919,0 -0.478,0.20127 -0.478,0.43272 0,0.20629 0.096,0.39749 0.4277,0.39749 0.1811,0 0.3572,-0.0604 0.4629,-0.1912 l 0,-0.56353 c -0.1007,-0.0403 -0.2164,-0.0755 -0.4126,-0.0755 z m -0.7296,-1.90696 c 0.2063,-0.12075 0.3321,-0.17107 0.4025,-0.17107 0.091,0 0.1812,0.0403 0.2667,0.0755 0.1258,0.0654 0.2465,0.10567 0.3673,0.10567 0.096,0 0.2264,-0.0503 0.4025,-0.15095 l 0,-0.52328 c -0.2113,0.11572 -0.3421,0.1761 -0.4126,0.1761 -0.081,0 -0.166,-0.0252 -0.2515,-0.0805 -0.1208,-0.0604 -0.2365,-0.1107 -0.3623,-0.1107 -0.1006,0 -0.2365,0.0503 -0.4126,0.15095 l 0,0.52831 z"
           style="font-style:normal;font-variant:normal;font-weight:500;font-stretch:normal;line-height:116.99999571%;font-family:Stellar;-inkscape-font-specification:'Stellar Medium';fill:#22313f;fill-opacity:1"
           id="path6508" />
        <path
           d="m 2808.0649,-270.69874 c 0,0.24152 0.025,0.9409 -0.4982,0.9409 -0.5333,0 -0.5182,-0.69938 -0.5182,-0.9409 0,-0.24151 -0.015,-0.9409 0.5182,-0.9409 0.5233,0 0.4982,0.69939 0.4982,0.9409 z m 0.483,0 c 0,-0.40252 0.01,-1.40884 -0.9812,-1.40884 -0.9861,0 -0.9912,1.00632 -0.9912,1.40884 0,0.40253 0.01,1.40884 0.9912,1.40884 0.9862,0 0.9812,-1.00631 0.9812,-1.40884 z"
           style="font-style:normal;font-variant:normal;font-weight:500;font-stretch:normal;line-height:116.99999571%;font-family:Stellar;-inkscape-font-specification:'Stellar Medium';fill:#22313f;fill-opacity:1"
           id="path6510" />
      </g>
    </g>
    <g
       id="g6366"
       transform="matrix(2.916955,0,0,2.916955,-6947.6756,773.43614)">
      <g
         style="fill:#59abe3"
         transform="matrix(-0.24020537,0.2395832,0.2395832,0.24020537,3080.9724,-469.73082)"
         id="g6368"
         inkscape:transform-center-x="-2.8427103"
         inkscape:transform-center-y="8.9545975">
        <path
           style="opacity:1;fill:#59abe3;fill-opacity:1;stroke:none;stroke-width:2.79999995;stroke-miterlimit:4;stroke-dasharray:none;stroke-opacity:1"
           d="m 2670.6758,-290.61133 -4.4395,4.42969 7.8008,7.82226 -7.8223,7.80079 4.4297,4.4414 7.8223,-7.80273 4.4394,-4.42774 -4.4277,-4.4414 -7.8027,-7.82227 z"
           id="path6370"
           transform="matrix(-0.73381084,0.73191014,0.73191014,0.73381084,4620.472,-1906.0295)"
           inkscape:connector-curvature="0" />
      </g>
      <path
         style="opacity:1;fill:#4183d7;fill-opacity:1;stroke:none;stroke-width:2.79999995;stroke-miterlimit:4;stroke-dasharray:none;stroke-opacity:1"
         d="m 2450.75,74.472574 -2.7518,2.744258 -1.5622,1.558771 1.5582,1.562189 2.7449,2.751777 1.5622,-1.558089 -2.745,-2.751776 2.7525,-2.744941 -1.5588,-1.562189 z"
         id="path6372"
         inkscape:connector-curvature="0" />
    </g>
    <g
       id="g6374"
       transform="matrix(7.5872151,0,0,7.5872151,-17881.156,801.28582)">
      <flowRoot
         style="font-style:normal;font-variant:normal;font-weight:normal;font-stretch:normal;font-size:2.77929068px;line-height:125%;font-family:Stellar;-inkscape-font-specification:Stellar;letter-spacing:-0.07717176px;word-spacing:0px;fill:#22313f;fill-opacity:1;stroke:none;stroke-width:1px;stroke-linecap:butt;stroke-linejoin:miter;stroke-opacity:1"
         id="flowRoot6376"
         xml:space="preserve"><flowRegion
           id="flowRegion6378"><rect
             style="font-style:normal;font-variant:normal;font-weight:normal;font-stretch:normal;font-size:2.77929068px;font-family:Stellar;-inkscape-font-specification:Stellar;letter-spacing:-0.07717176px;fill:#22313f;fill-opacity:1"
             y="24.338903"
             x="2386.5447"
             height="9.5160656"
             width="14.011705"
             id="rect6380" /></flowRegion><flowPara
           id="flowPara6382">III SESCOMP</flowPara></flowRoot>      <flowRoot
         xml:space="preserve"
         id="flowRoot6384"
         style="font-style:normal;font-variant:normal;font-weight:normal;font-stretch:normal;font-size:5.0315609px;line-height:116.99999571%;font-family:Stellar;-inkscape-font-specification:Stellar;letter-spacing:-0.13970993px;word-spacing:0px;fill:#22313f;fill-opacity:1;stroke:none;stroke-width:1px;stroke-linecap:butt;stroke-linejoin:miter;stroke-opacity:1"
         transform="matrix(0.19722726,0,0,0.19722726,1842.3681,82.387145)"><flowRegion
           id="flowRegion6386"><rect
             id="rect6388"
             width="81.333786"
             height="37.579376"
             x="2759.468"
             y="-279.6181"
             style="font-style:normal;font-variant:normal;font-weight:normal;font-stretch:normal;font-size:5.0315609px;line-height:116.99999571%;font-family:Stellar;-inkscape-font-specification:Stellar;letter-spacing:-0.13970993px;fill:#22313f;fill-opacity:1" /></flowRegion><flowPara
           style="font-style:normal;font-variant:normal;font-weight:500;font-stretch:normal;line-height:116.99999571%;font-family:Stellar;-inkscape-font-specification:'Stellar Medium';fill:#22313f;fill-opacity:1"
           id="flowPara6390">Semana de Engenharia de Software</flowPara><flowPara
           style="font-style:normal;font-variant:normal;font-weight:500;font-stretch:normal;line-height:116.99999571%;font-family:Stellar;-inkscape-font-specification:'Stellar Medium';fill:#22313f;fill-opacity:1"
           id="flowPara6392">e Ciência da Computação</flowPara></flowRoot>    </g>
  </g>
</svg>
